<svg xmlns="http://www.w3.org/2000/svg" width="291" height="109" preserveAspectRatio="xMidYMid meet" version="1.0" viewBox="0 0 291 109"><g fill="#ed1c24"><path d="M49.2 90.8 c-1.9 -1.9 -1.4 -2.8 1.8 -2.8 2.8 0 2.9 0.2 1.8 2 -1.5 2.3 -2 2.4 -3.6 0.8z"/><path d="M60 81.6 c0 -3.3 1.4 -4 3.4 -1.7 1.7 1.8 1.7 2 -0.3 3 -2.8 1.5 -3.1 1.4 -3.1 -1.3z"/><path d="M32.3 79.3 c-2.1 -0.8 -1.5 -3.3 0.7 -3.3 1.3 0 2 0.7 2 2 0 2 -0.5 2.3 -2.7 1.3z"/><path d="M38.4 75.3 c0.3 -2.1 0.6 -4.8 0.6 -6 0 -1.7 0.6 -2.3 2.1 -2.3 1.9 0 2.1 0.4 1.5 3.1 -0.3 1.7 -0.6 4.4 -0.6 6 0 2.3 -0.5 2.9 -2.1 2.9 -1.9 0 -2.1 -0.4 -1.5 -3.7z"/><path d="M117 75 c-3.7 -3.8 -3.8 -5 -0.2 -5 2 0 3.2 0.8 4.5 3 1.5 2.5 2.1 2.8 3.8 2 1 -0.6 1.9 -1.5 1.9 -2 0 -0.6 0.5 -1 1 -1 1.6 0 1.1 4.7 -0.6 5.4 -3.7 1.4 -7.5 0.6 -10.4 -2.4z"/><path d="M136.7 76 c-0.4 -1.6 0 -2 1.9 -2 1.7 0 2.4 0.6 2.4 2 0 1.3 -0.7 2 -1.9 2 -1 0 -2.1 -0.9 -2.4 -2z"/><path d="M151 75.9 c-1.5 -2.8 -0.8 -3.3 3.5 -2.5 2.6 0.5 3.5 1.2 3.5 2.6 0 2.9 -5.5 2.8 -7 -0.1z"/><path d="M104.3 75 c-0.3 -1.1 -1.2 -2 -1.9 -2 -0.8 0 -1.4 -0.7 -1.4 -1.5 0 -2.5 2.7 -1.7 3.4 1 0.4 1.4 1 2.5 1.5 2.5 1.5 0 0 -3.8 -2.4 -6.2 -4.6 -4.7 -5.9 -9.8 -2.5 -9.8 1.3 0 2.2 0.9 2.6 2.5 0.3 1.4 1.3 2.5 2 2.5 0.8 0 1.7 1.4 2.1 3 0.3 1.7 0.9 3 1.4 3 0.5 0 0.9 1.6 0.9 3.5 0 3.1 -0.3 3.5 -2.6 3.5 -1.7 0 -2.8 -0.6 -3.1 -2z"/><path d="M183 76.2 c0 -0.4 1.4 -1.3 3 -1.9 3.3 -1.2 4.1 0 1.1 1.7 -2.3 1.2 -4.1 1.3 -4.1 0.2z"/><path d="M192.3 76.3 c-3.2 -1.2 -0.4 -7.9 4 -9.6 2 -0.8 2.3 0.9 0.3 2 -2.2 1.3 -3 5.2 -1.2 5.9 0.9 0.3 1.6 1 1.6 1.5 0 1 -2.7 1.1 -4.7 0.2z"/><path d="M150 70.1 c0 -3.3 1.1 -5.1 3.1 -5.1 2 0 2.3 1 1.3 4.8 -0.8 2.8 -4.4 3 -4.4 0.3z"/><path d="M25 69.8 c0 -3 1.3 -5.8 2.6 -5.8 0.9 0 1.4 1.2 1.4 3.5 0 2.8 -0.4 3.5 -2 3.5 -1.1 0 -2 -0.6 -2 -1.2z"/><path d="M71.3 68.3 c-2.1 -0.8 -1.5 -4.3 0.7 -4.3 1.5 0 2 0.7 2 2.5 0 2.5 -0.4 2.8 -2.7 1.8z"/><path d="M114 65 c0 -2.9 4.7 -9 7 -9 1.7 0 1.1 4.5 -1 6.8 -1.1 1.2 -2 2.8 -2 3.7 0 0.8 -0.9 1.5 -2 1.5 -1.6 0 -2 -0.7 -2 -3z"/><path d="M142.1 62.8 c0 -2.2 0.1 -2.2 0.9 -0.3 0.8 1.9 0.9 1.8 1.1 -0.5 0.1 -1.4 0.2 -3.1 0.2 -3.7 -0.1 -0.7 0.8 -1.3 1.8 -1.3 2 0 2.4 1.7 1.3 5.8 -0.4 1.5 -1.4 2.2 -3 2.2 -1.8 0 -2.4 -0.5 -2.3 -2.2z"/><path d="M41.8 63.3 c-3.3 -0.8 -2 -3.3 1.7 -3.3 2.8 0 3.5 0.4 3.5 2 0 2 -1.4 2.3 -5.2 1.3z"/><path d="M48 61 c0 -2.3 0.4 -3 2 -3 2.3 0 2.7 2.9 0.8 4.8 -1.9 1.9 -2.8 1.4 -2.8 -1.8z"/><path d="M105 60.5 c0 -1.4 0.4 -2.5 0.8 -2.5 0.5 0 1.4 1.1 2 2.5 1 2.2 0.9 2.5 -0.8 2.5 -1.5 0 -2 -0.7 -2 -2.5z"/><path d="M150.5 62.1 c-0.9 -1.5 1.3 -5.1 3.1 -5.1 1.1 0 1.4 0.8 1.2 2.7 -0.3 2.8 -3 4.3 -4.3 2.4z"/><path d="M26 59.9 c0 -2.5 1.7 -5.9 3 -5.9 0.6 0 1 1.8 1 4 0 3.3 -0.3 4 -2 4 -1.4 0 -2 -0.7 -2 -2.1z"/><path d="M133 59.1 c-1.4 -2.7 -1.3 -3.1 1 -3.1 1.5 0 2 0.7 2 2.5 0 3 -1.5 3.3 -3 0.6z"/><path d="M66 58 c0 -1.1 0.7 -2.3 1.5 -2.6 0.8 -0.4 1.5 -1.2 1.5 -2 0 -0.9 1.1 -1.4 3 -1.4 l3 0 -2.6 4 c-2.9 4.3 -6.4 5.4 -6.4 2z"/><path d="M107.6 58.4 c-0.9 -2.3 -0.8 -2.4 1.9 -2.4 1.8 0 2.5 0.5 2.5 2 0 2.4 -3.5 2.8 -4.4 0.4z"/><path d="M99 56.2 c0 -2.3 1.9 -4.2 4.2 -4.2 2.2 0 2.4 2.6 0.4 4.6 -2 2 -4.6 1.8 -4.6 -0.4z"/><path d="M50 52.9 c-1.4 -0.4 -4.2 -1 -6.2 -1.4 -2.5 -0.4 -3.8 -1.1 -3.8 -2.2 0 -1.3 0.9 -1.5 6.2 -0.9 3.5 0.4 6.4 0.9 6.6 1.1 0.2 0.2 0.2 1.2 0 2.3 -0.2 1.5 -0.8 1.7 -2.8 1.1z"/><path d="M57.2 50.8 c-1.6 -1.6 -1.5 -3.9 0.2 -6 1.8 -2.5 2.6 -2.2 2.6 0.7 0 1.4 0.5 2.5 1 2.5 0.6 0 1 0.9 1 2 0 2.3 -2.9 2.7 -4.8 0.8z"/><path d="M63 45.5 c0 -3.1 0.3 -3.5 2.5 -3.5 3 0 3 0.3 0.8 4.1 -2.3 3.8 -3.3 3.7 -3.3 -0.6z"/><path d="M49 42 c-1.1 -2 0.1 -6 1.8 -6 0.9 0 3.2 4.9 3.2 6.7 0 2 -3.8 1.5 -5 -0.7z"/><path d="M98.8 41.8 c1.6 -1.6 1.6 -18 0 -19.6 -0.9 -0.9 1.1 -1.2 9 -1.2 8.9 0 10.5 0.3 12.2 2 2.5 2.5 2.5 4.5 0.1 6.9 -1.9 1.9 -1.9 2 0 3.7 2.5 2.3 2.4 5.9 -0.3 7.8 -2.9 2 -23 2.4 -21 0.4z m13.7 -2.8 c0.9 -2.7 -0.3 -6 -2.1 -6 -1 0 -1.4 1.2 -1.4 4 0 4.3 2.3 5.7 3.5 2z m0 -10 c0.9 -2.7 -0.3 -6 -2.1 -6 -1 0 -1.4 1.2 -1.4 4 0 4.3 2.3 5.7 3.5 2z"/><path d="M127.6 39.7 c-3.1 -2.9 -3.6 -4 -3.6 -7.7 0 -3.7 0.5 -4.8 3.6 -7.7 3.3 -2.9 4.3 -3.3 9.4 -3.3 5.3 0 6.1 0.3 8.4 3.1 2 2.4 2.6 4.1 2.6 7.9 0 3.8 -0.6 5.5 -2.6 7.9 -2.3 2.8 -3.1 3.1 -8.4 3.1 -5.1 0 -6.1 -0.4 -9.4 -3.3z m9.9 0 c0.3 -1.2 0.5 -5.4 0.3 -9.2 -0.2 -5.4 -0.6 -7 -1.8 -7 -1.2 0 -1.6 1.6 -1.8 7 -0.3 7.6 0.3 11.5 1.8 11.5 0.5 0 1.2 -1 1.5 -2.3z"/><path d="M156 41.5 c-0.7 -0.8 -1.8 -1.5 -2.6 -1.5 -2 0 -3.4 -3.3 -3.4 -8 0 -4.7 1.4 -8 3.4 -8 0.8 0 1.9 -0.7 2.6 -1.5 0.8 -1 3.1 -1.5 7 -1.5 5.3 0 6.1 0.3 8.4 3.1 2 2.4 2.6 4.1 2.6 7.9 0 3.8 -0.6 5.5 -2.6 7.9 -2.3 2.8 -3.1 3.1 -8.4 3.1 -3.9 0 -6.2 -0.5 -7 -1.5z m7.5 -1.8 c0.3 -1.2 0.5 -5.4 0.3 -9.2 -0.2 -5.4 -0.6 -7 -1.8 -7 -1.2 0 -1.6 1.6 -1.8 7 -0.3 7.6 0.3 11.5 1.8 11.5 0.5 0 1.2 -1 1.5 -2.3z"/><path d="M177.5 32 l0 -11 6.1 0 6.1 0 -0.5 5.2 -0.5 5.2 2.7 -2.8 c3 -3.4 3.3 -5.1 0.9 -6.5 -1.4 -0.8 -0.4 -1 4 -1.1 5.8 0 7.2 1.1 3.8 2.9 -3.7 2 -3.5 3.3 2.6 17.9 0.4 0.9 -2.4 1.2 -12.3 1.2 l-12.9 0 0 -11z m13.4 8.3 c0 -0.5 -0.4 -1.7 -0.9 -2.8 -0.8 -1.8 -0.9 -1.7 -0.9 0.8 -0.1 1.5 0.4 2.7 0.9 2.7 0.6 0 1 -0.3 0.9 -0.7z"/><path d="M206.8 41.8 c0.7 -0.7 1.2 -3.6 1.2 -6.5 0 -4 0.4 -5.3 1.5 -5.3 0.8 0 1.5 -0.4 1.5 -1 0 -0.5 -0.4 -1 -0.9 -1 -0.5 0 -1.2 -1.1 -1.5 -2.5 -0.4 -1.4 -1.1 -2.5 -1.6 -2.5 -0.6 0 -1 -0.4 -1 -1 0 -1.4 9.9 -1.2 11.4 0.3 0.7 0.6 1.5 2 1.9 3 1 2.7 2.7 2 3.4 -1.3 0.5 -2.9 0.8 -3 5.7 -3 l5.1 0 0 11 0 11 -6.2 0 c-3.5 0 -6.3 -0.4 -6.3 -0.9 0 -0.5 0.5 -1.1 1.1 -1.3 0.6 -0.2 0.9 -2.3 0.7 -4.8 l-0.3 -4.5 -1.9 5.6 -1.9 5.6 -6.6 0.2 c-5.1 0.1 -6.3 -0.1 -5.3 -1.1z m7.1 -4.4 c-1.2 -2.8 -1.3 -2.8 -1.7 -0.6 -0.2 1.3 0.2 3 0.9 3.9 1.8 2.1 2.2 0.2 0.8 -3.3z"/><path d="M241 42 c0 -0.5 0.7 -1 1.5 -1 1.1 0 1.5 -1.1 1.5 -4 0 -2.2 -0.4 -4 -0.9 -4 -0.5 0 -1.7 -2 -2.6 -4.4 -1 -2.5 -2.3 -4.7 -3.1 -5 -3.5 -1.3 -0.9 -2.6 5.2 -2.6 4.9 0 6.5 0.3 6.2 1.3 -0.3 0.6 0 2.5 0.7 4 1.1 2.7 1.3 2.8 2.8 1.2 2.1 -2.1 2.2 -4.5 0.2 -4.5 -0.8 0 -1.5 -0.4 -1.5 -1 0 -0.5 2.3 -1 5 -1 l5.1 0 -2.3 3.2 c-1.3 1.8 -3.1 4.1 -4 5.2 -2 2.2 -2.6 11.6 -0.8 11.6 0.6 0 1 0.5 1 1 0 0.6 -3 1 -7 1 -4 0 -7 -0.4 -7 -1z"/><path d="M23 32.3 c0 -0.5 1.6 -1.8 3.5 -3.1 l3.5 -2.2 0 3 c0 2.8 -0.3 3 -3.5 3 -1.9 0 -3.5 -0.3 -3.5 -0.7z"/><path d="M40 23.5 c0 -4 2.4 -4.9 3.4 -1.2 1 3.7 0.7 4.7 -1.4 4.7 -1.6 0 -2 -0.7 -2 -3.5z"/><path d="M9 23 c0 -2.3 1 -2.6 2.8 -0.8 1.8 1.8 1.5 2.8 -0.8 2.8 -1.3 0 -2 -0.7 -2 -2z"/><path d="M22.2 11.8 c-1.9 -1.9 -1.4 -2.8 1.3 -2.8 1.8 0 2.5 0.5 2.5 2 0 2.2 -2 2.6 -3.8 0.8z"/></g><g fill="#00318b"><path d="M99.7 75.9 c-1.2 -4.5 -0.8 -5.9 1.7 -5.9 1.7 0 2.6 0.7 3 2.5 0.4 1.4 1.1 2.5 1.6 2.5 1.4 0 1.3 -0.6 -0.6 -4.3 -1.1 -2 -1.3 -3.2 -0.6 -3.5 0.7 -0.2 0.4 -1.5 -0.9 -3.5 -1 -1.8 -1.9 -4.7 -1.9 -6.4 0 -2.9 0.3 -3.3 2.5 -3.3 1.4 0 2.5 -0.4 2.5 -1 0 -0.5 1.1 -1 2.5 -1 2 0 2.5 0.5 2.5 2.4 0 1.3 0.3 3.1 0.6 4 1.1 2.8 -3.2 1.9 -5.6 -1.2 -1.8 -2.4 -1.8 -2.1 0.4 2.5 1.4 2.8 3 5.3 3.7 5.5 1.4 0.5 2.3 8.9 1 10.7 -0.5 0.8 -3.2 1.6 -6.4 1.9 -5 0.4 -5.5 0.3 -6 -1.9z m9.3 -4.4 c0 -0.8 -0.4 -1.5 -1 -1.5 -0.5 0 -1 0.7 -1 1.5 0 0.8 0.5 1.5 1 1.5 0.6 0 1 -0.7 1 -1.5z"/><path d="M140 76.8 c0 -0.7 0.4 -3 0.9 -5 0.7 -3 0.6 -3.8 -0.5 -3.8 -0.8 0 -1.4 -1 -1.4 -2.5 0 -1.4 -0.4 -2.5 -1 -2.5 -0.5 0 -1 -1.6 -1 -3.5 0 -3.2 0.2 -3.5 3.1 -3.5 2.5 0 2.9 0.3 2.4 1.9 -0.3 1 -0.1 2.9 0.3 4.2 l0.9 2.4 0.7 -2.3 c0.4 -1.2 0.4 -3.1 0.1 -4.2 -0.5 -1.7 -0.2 -2 2 -2 2 0 2.5 0.4 2.1 1.8 -0.3 0.9 -1.2 4.9 -2.1 8.7 -0.8 3.9 -1.7 8 -2 9.3 -0.6 2.3 -4.5 3.2 -4.5 1z"/><path d="M162.9 69.8 c-0.1 -7.1 -0.3 -7.7 -0.9 -4.3 -0.5 2.2 -0.6 5.7 -0.3 7.8 0.6 3.7 0.6 3.7 -3.1 3.7 l-3.6 0 0 -6.4 c0 -4.2 0.4 -6.6 1.3 -6.9 0.7 -0.3 0.5 -0.6 -0.5 -0.6 -3.8 -0.2 -1.1 -7.1 2.7 -7.1 1.7 0 2.5 0.7 2.8 2.3 l0.4 2.2 0.2 -2.2 c0.1 -2.7 1.3 -2.9 3.1 -0.8 0.7 0.8 1.9 1.5 2.6 1.5 1.1 0 1.4 1.9 1.4 7.9 0 4.4 0.3 8.6 0.6 9.5 0.5 1.3 -0.1 1.6 -3 1.6 l-3.6 0 -0.1 -8.2z m-3.2 -2 c-0.2 -1.3 -0.4 -0.3 -0.4 2.2 0 2.5 0.2 3.5 0.4 2.3 0.2 -1.3 0.2 -3.3 0 -4.5z"/><path d="M127 74 c0 -2.5 0.4 -3 2.5 -3 2.7 0 3.1 1 1.5 4.1 -1.7 3 -4 2.4 -4 -1.1z"/><path d="M174 75.6 c0 -0.9 0.7 -1.6 1.6 -1.6 1.7 0 1.4 2.2 -0.4 2.8 -0.7 0.2 -1.2 -0.3 -1.2 -1.2z"/><path d="M180.3 76.3 c-2.3 -0.9 -1.4 -4.5 2 -7.4 1.7 -1.6 3.8 -2.9 4.5 -2.9 1.5 0 2.8 2.8 1.7 3.8 -0.4 0.4 -1 0.1 -1.2 -0.5 -0.3 -0.7 -0.8 -1.3 -1.2 -1.3 -0.8 0 -3.1 4.5 -3.1 6 0 1.4 3.4 1.2 4.8 -0.2 0.9 -0.9 1.2 -0.9 1.2 0 0 2.3 -5.4 3.9 -8.7 2.5z"/><path d="M192.8 75.6 c-2.5 -1.9 -2.2 -3.5 1.3 -6.8 4 -3.9 7.3 -3.5 7.7 0.9 0.5 5.5 -4.9 9.1 -9 5.9z m6 -1.8 c0.7 -0.7 1.2 -2.2 1.2 -3.5 0 -3.5 -3.9 -2.8 -5.3 1 -1.3 3.4 1.6 5 4.1 2.5z"/><path d="M114.2 69 c0 -1.9 0.2 -2.7 0.5 -1.7 0.2 0.9 0.2 2.5 0 3.5 -0.3 0.9 -0.5 0.1 -0.5 -1.8z"/><path d="M118 63 c0 -4.3 0.3 -5 1.9 -5 1.5 0 2.1 0.8 2.4 3.8 0.3 3.4 0.4 3.3 0.5 -1 0.2 -3.9 0.5 -4.8 2 -4.8 3.1 0.1 6.2 3.4 6.9 7.3 0.5 3.2 0.3 3.7 -1.5 3.7 -1.3 0 -2.2 -0.9 -2.6 -2.4 -0.3 -1.3 -1.2 -2.6 -2.1 -2.9 -1.1 -0.5 -1.3 0 -0.9 2.2 0.5 2.3 0.2 2.9 -1.8 3.4 -4.4 1.2 -4.8 0.9 -4.8 -4.3z"/></g><g fill="#313a3d"><path d="M44.2 87.2 l-6.4 -4.5 0.7 -7.1 c0.4 -3.9 1 -7.5 1.2 -8 0.3 -0.4 3 -0.6 6 -0.4 5.1 0.4 5.8 0.9 11.9 6.9 3.5 3.5 6.4 6.7 6.4 7.2 0 0.4 -1.4 1.6 -3.2 2.5 -1.7 0.9 -4.7 3.1 -6.7 4.8 l-3.6 3.2 -6.3 -4.6z"/><path d="M65.3 76.8 l-11.2 -11.3 0.6 -4.6 c0.5 -4.1 0.2 -4.8 -2.1 -6.6 -1.4 -1.2 -4.9 -2.4 -8 -2.7 -3.5 -0.5 -6 -1.4 -7.2 -2.8 -2.8 -3 -6.8 -4.8 -10.8 -4.8 -6.6 0 -13 -4 -16.2 -10.2 -1.4 -2.8 -1.9 -10.9 -0.7 -12.2 0.4 -0.3 3.2 1.9 6.4 5 l5.6 5.6 3.1 -1.6 c1.6 -0.8 4 -3.2 5.2 -5.2 l2.3 -3.6 -5.7 -5.7 c-4.7 -4.7 -5.4 -5.9 -4.1 -6.5 4.7 -1.8 12.8 0.7 16.8 5.2 2.5 2.7 4.6 8.8 4.7 13.3 0 1.9 0.6 4.4 1.4 5.4 1 1.4 1.1 2.6 0.4 4.7 -1.2 3.5 1 7.5 4.7 8.4 1.4 0.4 2.5 1.3 2.5 2.3 0 1.9 3.5 6.1 5 6.1 0.5 0 1.6 1.5 2.4 3.4 0.8 1.9 2.4 3.9 3.5 4.6 1.2 0.6 2.1 1.7 2.1 2.4 0 0.7 0.9 2.5 2.1 4 2.4 3.1 7.2 3.5 10.2 0.9 1.8 -1.7 2 -1.6 5.8 2.4 2.9 3.2 3.9 5.1 3.9 7.6 0 4.4 -3.4 7.7 -8.1 7.7 -3.1 0 -4.7 -1.2 -14.6 -11.2z m17.1 4 c0.8 -1.4 0.7 -2.1 -0.6 -3.4 -3 -3 -7.5 0.9 -4.8 4.2 1.6 1.8 3.9 1.5 5.4 -0.8z"/><path d="M29.9 77.4 c-1.8 -1.3 -3.7 -3.1 -4.2 -3.9 -1.2 -2.1 1 -17.7 2.8 -19.4 1.3 -1.4 2.6 -1.3 11.2 0.1 11.1 2 13.3 3.4 11.4 7.4 -1.1 2.5 -1.4 2.6 -6.4 2 -2.9 -0.3 -5.8 -0.2 -6.5 0.2 -1.5 1 -3.1 7.1 -3.2 11.9 0 4.3 -1.1 4.7 -5.1 1.7z"/><path d="M166 77 c0 -0.5 0.6 -1 1.4 -1 0.8 0 1.8 0.5 2.1 1 0.3 0.6 -0.3 1 -1.4 1 -1.2 0 -2.1 -0.4 -2.1 -1z"/><path d="M71.2 67.8 c-1.8 -1.8 -1.5 -3.4 1.4 -7.7 2.9 -4.5 5 -5.7 7 -4 2.1 1.8 1.7 4.2 -1.6 8.7 -3.1 4.3 -4.7 5.1 -6.8 3z"/><path d="M151 60.3 c0.1 -1.9 1.8 -3.2 5.3 -3.8 3.9 -0.8 4.5 -0.1 2.3 2.8 -1.3 1.7 -7.6 2.5 -7.6 1z"/><path d="M64.2 58.8 c-1.7 -1.7 -1.5 -2.6 1.9 -8 3.2 -4.9 6.1 -6.2 8.7 -3.6 1.9 1.9 1.5 3.1 -2.3 8.2 -3.6 4.6 -6.1 5.6 -8.3 3.4z"/><path d="M57.6 50.4 c-2.2 -2.1 -2.1 -2.5 1.7 -8 3.4 -5.2 6.5 -6.6 8.7 -3.9 1.2 1.4 1.1 2.2 -0.6 5.3 -4.3 8 -6.8 9.7 -9.8 6.6z"/><path d="M50.2 42.8 c-1.9 -1.9 -1.4 -4.6 1.8 -9.4 3.1 -4.4 5.6 -5.4 7.8 -3.2 1.9 1.9 1.5 3.7 -1.9 9 -3.1 4.8 -5.4 5.9 -7.7 3.6z"/></g><g fill="#000"><path d="M99.6 75.6 c-1 -3.6 -0.7 -5.6 0.9 -5.6 0.8 0 1.5 0.5 1.5 1 0 1.8 3.7 5.2 4.4 4.1 0.8 -1.3 -2.4 -8.1 -3.9 -8.1 -1.3 0 -3.5 -5.7 -3.5 -9.2 0 -3.8 2.5 -5.8 7.1 -5.8 3.7 0 3.9 0.2 3.9 3 0 1.7 0.5 3 1 3 0.6 0 1 0.5 1 1 0 2 -2.9 0.9 -4.9 -1.8 -1.9 -2.6 -2 -2.6 -1.6 -0.4 0.4 2.5 4.4 9.5 5.7 10 0.4 0.2 0.8 2.6 0.8 5.3 0 5.3 0.4 5.1 -7.7 5.4 -3.4 0.2 -4.2 -0.2 -4.7 -1.9z"/><path d="M117.1 74.5 c-3.1 -3.3 -3.3 -4 -2.8 -8 0.8 -5.5 4.9 -10.5 8.6 -10.5 3.7 0 8.1 4.4 8.1 8 0 2.9 -0.2 3 -4.6 3 l-4.5 0 0.3 4.2 c0.4 5.1 3.3 6.7 4.4 2.4 0.4 -1.7 1.3 -2.6 2.6 -2.6 1.7 0 1.9 0.4 1.3 2.7 -0.9 3.6 -0.7 3.5 -5.7 4 -3.9 0.4 -4.6 0.1 -7.7 -3.2z m5.8 -13.2 c0 -3.1 -0.2 -3.4 -0.9 -1.8 -1.2 2.8 -1.2 5.5 0 5.5 0.6 0 1 -1.7 0.9 -3.7z"/><path d="M137.1 75.8 c-0.9 -2.1 -4.1 -16.9 -4.1 -18.9 0 -0.5 2 -0.9 4.5 -0.9 4.3 0 5.9 1.2 3.3 2.4 -1 0.5 -1 0.7 0 1.2 0.6 0.3 1.2 1.8 1.2 3.2 0.1 2.6 0.1 2.6 1.6 0.7 0.9 -1.2 1.3 -3.1 1 -4.7 -0.5 -2.3 -0.2 -2.8 1.4 -2.8 1.6 0 1.9 0.5 1.5 2.3 -0.3 1.2 -1.4 6 -2.3 10.7 -1.7 7.9 -2 8.5 -4.5 8.8 -2 0.3 -2.9 -0.2 -3.6 -2z"/><path d="M153.2 76.9 c-2.9 -1.1 -3.6 -3 -2.8 -7.4 0.6 -2.9 1.4 -3.8 5.1 -5.4 3.2 -1.4 4.5 -2.6 4.5 -4 0 -2.8 -0.8 -2.6 -2 0.4 -1.2 3.3 -7 3.7 -7 0.5 0 -2.3 5.5 -5 10.1 -5 3.9 0 4.9 2.4 4.9 11.9 0 6.5 0.3 8.1 1.5 8.1 0.8 0 1.5 0.4 1.5 0.9 0 1.2 -12.6 1.2 -15.8 0z m6.8 -6.9 c0 -2.2 -0.4 -4 -1 -4 -0.5 0 -1 1.8 -1 4 0 2.2 0.5 4 1 4 0.6 0 1 -1.8 1 -4z"/></g></svg>